:SAMPLES-PER-SECOND 24
:FULLY-SPECIFIED
:DEGREES
17
root  -1.51721 40.3405 29.3286 170.467 56.3149 173.295
RightUpLeg  2.11572 -9.01442 -18.5148
RightLeg  27.0262 8.11843 4.27163
RightFoot  0.640985 -1.67561 15.9598
RightToes  -1.74623e-010 0 -2.59999e-017
Spine  3.52415 1.99128 -2.47433
Spine1  13.4753 1.54442 0.15841
HEad  -21.3072 47.0956 -26.7886
LeftShoulder1  1.57702 -3.08327 -17.2847
LeftArm  8.3632 23.3846 -41.7764
LeftForeArm  83.4747 -79.9491 -70.5889
LeftHand  -0.093605 3.75751 5.57725
RightShoulder  2.70925 4.93443 26.084
RightArm  -0.426683 -15.6958 33.8286
RightForeArm  133.264 58.6473 160.572
RightHand  -0.0396066 -6.76488 0.1064
LeftUpLeg  -6.59269 14.8054 9.2913
LeftLeg  26.2013 -1.24075 -0.32635
LeftFoot  10.9338 1.79478 -9.6281
LeftToes  -6.27559e-011 -2.10356e-011 8.24929e-012
18
root  -1.71927 38.7426 29.4872 170.614 56.2037 173.812
RightUpLeg  1.3589 -9.36552 -19.0205
RightLeg  32.2373 9.95419 6.48667
RightFoot  -12.2696 0.0527147 16.3007
RightToes  -1.74623e-010 0 -2.59999e-017
Spine  4.18843 1.71864 -2.64437
Spine1  13.9023 0.920946 0.745964
HEad  -22.8473 46.3584 -28.0006
LeftShoulder1  1.58664 -2.98494 -17.8369
LeftArm  7.64922 17.3603 -38.33
LeftForeArm  71.2015 -78.9978 -60.1108
LeftHand  -0.073256 3.68798 3.78092
RightShoulder  2.70461 4.88471 26.2259
RightArm  -5.49015 -9.13851 30.4764
RightForeArm  128.242 61.6491 157.871
RightHand  -0.0134175 -6.06838 -2.93853
LeftUpLeg  -8.27796 15.9674 10.4196
LeftLeg  32.4946 -2.92745 -1.6584
LeftFoot  -2.70923 0.93993 -12.3177
LeftToes  -6.27559e-011 -2.10356e-011 8.24929e-012
19
root  -1.95501 37.3762 29.5115 173.035 55.8109 176.481
RightUpLeg  1.1858 -11.4344 -18.443
RightLeg  34.6621 10.6026 7.55959
RightFoot  -22.0381 1.31149 15.528
RightToes  -1.74623e-010 0 -2.59999e-017
Spine  3.80882 0.975719 -1.205
Spine1  15.6713 -0.0711181 1.42955
HEad  -26.0539 45.9279 -30.95
LeftShoulder1  1.61963 -2.73339 -19.4703
LeftArm  5.07688 10.7314 -36.2102
LeftForeArm  55.4558 -75.4931 -39.6529
LeftHand  -0.0549818 4.46992 4.38344
RightShoulder  2.80558 4.93922 27.2521
RightArm  -9.30613 -1.56338 27.8453
RightForeArm  122.867 68.7939 149.002
RightHand  0.102696 -6.87745 -9.99778
LeftUpLeg  -11.074 15.9256 11.9365
LeftLeg  38.2534 -3.12241 -2.25042
LeftFoot  -12.6585 -0.0564615 -11.4592
LeftToes  -6.27559e-011 -2.10356e-011 8.24929e-012
20
root  -2.02597 37.1389 29.2745 175.221 55.2382 177.905
RightUpLeg  1.02446 -12.6438 -17.9107
RightLeg  33.8472 10.108 6.98728
RightFoot  -22.8764 1.39831 15.2938
RightToes  -1.74623e-010 0 -2.59999e-017
Spine  2.07092 0.657278 -0.0149639
Spine1  16.9936 -0.522839 1.88192
HEad  -26.5314 45.8481 -32.1699
LeftShoulder1  1.69005 -2.67172 -20.9666
LeftArm  2.64591 9.70751 -37.9966
LeftForeArm  62.3106 -71.9575 -27.2264
LeftHand  0.00014553 5.65035 8.81341
RightShoulder  2.97266 5.1324 28.4828
RightArm  -8.93088 -0.746783 28.4961
RightForeArm  111.988 75.0737 133.132
RightHand  0.807693 -9.57585 -22.5691
LeftUpLeg  -12.3977 14.7325 11.7729
LeftLeg  38.7906 -2.20973 -1.52857
LeftFoot  -14.7719 -0.246188 -11.1348
LeftToes  -6.27559e-011 -2.10356e-011 8.24929e-012
21
root  -1.7971 38.2719 28.8134 175.18 53.9424 176.883
RightUpLeg  2.38007 -12.7493 -18.5747
RightLeg  29.9045 9.90405 5.86806
RightFoot  -15.7476 0.568764 18.3313
RightToes  -1.74623e-010 0 -2.59999e-017
Spine  0.26239 1.284 -0.19583
Spine1  16.9068 0.0361454 2.33907
HEad  -23.4847 44.9908 -30.4097
LeftShoulder1  1.71611 -2.70315 -21.2685
LeftArm  3.84428 15.5226 -41.113
LeftForeArm  70.2666 -72.4365 -26.9986
LeftHand  0.0115042 5.68491 12.7224
RightShoulder  3.03807 5.19661 28.9949
RightArm  -7.29163 -10.2347 31.552
RightForeArm  105.413 76.5563 125.648
RightHand  1.30405 -10.3024 -30.1964
LeftUpLeg  -9.95891 13.3003 10.1895
LeftLeg  32.2774 -2.31778 -1.21553
LeftFoot  -9.18455 0.266553 -11.6438
LeftToes  -6.27559e-011 -2.10356e-011 8.24929e-012
22
root  -1.47615 39.911 28.2646 174.479 50.4397 175.722
RightUpLeg  5.21038 -12.9931 -19.2429
RightLeg  24.441 6.53443 3.0421
RightFoot  -2.45532 -1.65781 20.6454
RightToes  -1.74623e-010 0 -2.59999e-017
Spine  -0.399932 1.5581 -0.618614
Spine1  15.2566 0.470026 2.82944
HEad  -18.7959 43.3612 -26.5094
LeftShoulder1  1.66485 -2.55548 -21.0836
LeftArm  8.60188 23.3003 -40.6172
LeftForeArm  63.5784 -74.5882 -34.012
LeftHand  -0.195315 3.3299 10.6969
RightShoulder  3.18337 5.3476 30.0623
RightArm  -6.07015 -23.2201 33.0317
RightForeArm  107.173 76.4507 126.483
RightHand  0.690326 -8.44942 -25.9931
LeftUpLeg  -7.06059 12.9525 8.98763
LeftLeg  24.4865 -5.92279 -2.56598
LeftFoot  2.83453 1.59072 -12.8521
LeftToes  -6.27559e-011 -2.10356e-011 8.24929e-012
23
root  -1.25024 41.0707 27.8189 175.152 44.4012 175.324
RightUpLeg  6.92173 -12.7082 -18.483
RightLeg  20.9009 0.607122 0.0421987
RightFoot  7.48399 -2.73786 16.7207
RightToes  -1.74623e-010 0 -2.59999e-017
Spine  -1.69746 0.904519 -1.34679
Spine1  14.0064 -0.0966551 3.33349
HEad  -14.0385 40.6301 -21.7019
LeftShoulder1  1.603 -2.41529 -20.6619
LeftArm  12.7873 28.609 -38.2738
LeftForeArm  58.6003 -75.7705 -39.9206
LeftHand  -0.248146 2.4428 9.4887
RightShoulder  3.47125 5.71883 31.7556
RightArm  -3.25334 -33.8633 32.2723
RightForeArm  109.702 76.9478 124.783
RightHand  0.0499906 -5.71722 -21.0473
LeftUpLeg  -8.81906 13.9875 7.9465
LeftLeg  22.4027 -10.6055 -4.44458
LeftFoot  10.6333 3.02963 -15.8567
LeftToes  -6.27559e-011 -2.10356e-011 8.24929e-012
24
root  -1.12838 41.6117 27.4733 176.647 37.1072 175.31
RightUpLeg  7.9337 -10.9314 -16.7494
RightLeg  19.2237 0.614737 0.0184515
RightFoot  7.32169 -2.07485 12.8799
RightToes  -1.74623e-010 0 -2.59999e-017
Spine  -4.13028 0.243365 -2.02741
Spine1  15.2084 -0.826693 3.66868
HEad  -11.6511 35.4592 -18.6319
LeftShoulder1  1.57135 -2.45386 -19.9065
LeftArm  15.2817 29.6462 -37.3111
LeftForeArm  59.4543 -75.3503 -37.8355
LeftHand  -0.441647 1.93201 14.6413
RightShoulder  3.59502 5.94415 32.1701
RightArm  -0.34431 -41.1989 32.3189
RightForeArm  109.138 77.693 120.708
RightHand  -0.269261 -4.00919 -21.9009
LeftUpLeg  -13.8199 14.7656 6.34847
LeftLeg  24.4998 -11.2274 -5.20398
LeftFoot  8.77011 2.89763 -16.5051
LeftToes  -6.27559e-011 -2.10356e-011 8.24929e-012
25
root  -1.10423 41.5982 27.2511 177.484 30.2884 175.097
RightUpLeg  9.52864 -6.61026 -14.7096
RightLeg  16.8097 5.67664 1.64741
RightFoot  3.8982 -1.89701 14.3617
RightToes  -1.74623e-010 0 -2.59999e-017
Spine  -5.01489 0.27927 -2.12686
Spine1  16.888 -0.717998 2.80884
HEad  -11.6109 28.8326 -17.7252
LeftShoulder1  1.56769 -2.50906 -19.582
LeftArm  16.3582 26.8549 -36.7971
LeftForeArm  53.4211 -72.4958 -30.3339
LeftHand  -0.630168 1.75992 20.0898
RightShoulder  3.58019 5.98834 31.8341
RightArm  1.48612 -45.0304 32.6632
RightForeArm  99.1406 78.6116 111.117
RightHand  -0.411988 -3.37224 -23.3316
LeftUpLeg  -18.9275 15.6344 4.24738
LeftLeg  25.7313 -7.86605 -3.77443
LeftFoot  5.3361 1.93488 -13.3707
LeftToes  -6.27559e-011 -2.10356e-011 8.24929e-012
26
root  -1.15518 41.002 27.1336 178.55 24.1166 174.878
RightUpLeg  10.7447 -5.25186 -13.74
RightLeg  15.4877 10.0725 2.85517
RightFoot  0.608278 -1.62109 15.507
RightToes  -1.74623e-010 0 -2.59999e-017
Spine  -4.26629 0.555749 -1.68959
Spine1  16.3148 -0.241453 1.57474
HEad  -11.5142 22.8967 -17.3321
LeftShoulder1  1.62647 -2.5569 -20.4027
LeftArm  15.4077 23.3926 -36.0329
LeftForeArm  41.5793 -67.3518 -22.9583
LeftHand  -0.676809 1.85375 22.0804
RightShoulder  3.69414 6.09443 32.6079
RightArm  4.21366 -45.6058 30.2695
RightForeArm  82.672 79.2664 96.0724
RightHand  -0.602805 -2.60844 -24.8071
LeftUpLeg  -24.1848 17.6018 1.04405
LeftLeg  23.165 -4.64818 -1.82892
LeftFoot  4.40897 1.40765 -10.3554
LeftToes  -6.27559e-011 -2.10356e-011 8.24929e-012
